<svg version="1.1" id="Layer_1" xmlns="http://www.w3.org/2000/svg" xmlns:xlink="http://www.w3.org/1999/xlink" x="0px" y="0px"
	 width="100%" viewBox="100 280 850 460" enable-background="new 0 0 1024 1024" xml:space="preserve">
<path fill="#000000" opacity="1.000000" stroke="none" 
	d="
M704.384644,524.639954 
	C697.387268,517.713867 690.723083,510.948853 683.881470,504.368378 
	C681.074707,501.668701 681.186829,499.872437 684.052917,497.077881 
	C706.235107,475.449890 728.198853,453.597870 750.361389,431.949493 
	C753.426392,428.955627 753.666199,427.100342 750.431885,423.956757 
	C728.092651,402.243927 705.945190,380.333832 683.716370,358.507263 
	C681.770691,356.596832 680.377014,355.193420 683.186218,352.482605 
	C691.454285,344.504181 699.530762,336.314392 707.401917,327.943726 
	C710.504517,324.644165 712.431580,324.462219 715.783142,327.822144 
	C738.248718,350.343994 761.426392,372.151398 783.395569,395.174377 
	C783.724915,395.519623 784.204651,395.721344 784.895508,396.174530 
	C790.110046,392.384155 794.436157,387.549072 799.015137,383.028046 
	C817.391541,364.884186 835.735962,346.706665 853.928528,328.379089 
	C856.899170,325.386322 858.730530,324.991974 862.031555,328.052704 
	C870.711975,336.101135 878.936646,344.593842 887.306519,352.946167 
	C887.986145,353.624359 888.450989,354.517792 888.955872,355.227203 
	C864.919495,379.700989 841.035889,404.019135 816.476013,429.025879 
	C823.182861,435.577667 830.054382,442.277405 836.911621,448.991638 
	C852.143799,463.906036 867.386536,478.809540 882.588623,493.754486 
	C889.654785,500.701111 889.590393,500.713501 882.564331,507.571381 
	C875.651306,514.319092 868.616089,520.956787 861.999023,527.985962 
	C858.852539,531.328491 857.078430,530.859436 854.060425,527.803833 
	C832.869873,506.349152 811.492004,485.079346 790.155334,463.769165 
	C788.758362,462.373840 787.206909,461.133148 785.882690,459.958374 
	C783.551086,460.436615 782.451477,462.000336 781.182007,463.266083 
	C759.362671,485.021210 737.520020,506.753448 715.817871,528.624939 
	C712.827820,531.638367 710.685242,531.696411 708.141418,528.437073 
	C707.124573,527.134155 705.820007,526.055847 704.384644,524.639954 
z"/>
<path fill="#000000" opacity="1.000000" stroke="none" 
	d="
M273.878052,528.105835 
	C225.646378,541.648315 176.973175,524.598511 151.026443,481.411682 
	C123.750656,436.012726 133.562469,367.923035 187.249329,335.889526 
	C233.304855,308.409393 292.144897,318.640137 325.620300,360.335602 
	C343.751617,382.919189 350.955170,409.264404 347.377411,438.004120 
	C341.771179,483.038513 316.704437,512.677979 273.878052,528.105835 
M311.377899,452.846893 
	C316.183685,440.594116 317.278595,427.741669 315.353302,414.990356 
	C309.072540,373.392944 268.459290,345.909271 227.321152,354.882965 
	C188.574326,363.335083 163.672516,399.385315 169.395264,438.742035 
	C174.442352,473.451996 205.437042,500.507812 240.377930,500.704041 
	C272.133575,500.882385 298.119232,483.552460 311.377899,452.846893 
z"/>
<path fill="#000000" opacity="1.000000" stroke="none" 
	d="
M554.258789,392.813477 
	C578.325867,438.506378 602.213867,483.876770 626.089355,529.223267 
	C622.900696,531.279053 407.512146,531.833435 401.274628,529.572571 
	C438.560333,458.902863 475.783386,388.369080 513.001099,315.931183 
	C528.283936,341.675873 540.540588,367.437683 554.258789,392.813477 
M518.281738,393.138763 
	C516.915283,390.737366 516.164551,387.939850 513.493835,385.526215 
	C493.805084,423.237213 474.317627,460.562744 454.639130,498.254211 
	C494.553772,498.254211 533.733521,498.254211 573.434204,498.254211 
	C554.959167,463.041962 536.792664,428.417908 518.281738,393.138763 
z"/>
<path fill="#000000" opacity="1.000000" stroke="none" 
	d="
M842.386597,624.306030 
	C831.525940,649.591614 820.811890,674.524963 810.036316,699.431702 
	C809.091003,701.616760 808.682800,704.584290 805.415710,704.652954 
	C801.816284,704.728577 801.552124,701.565063 800.539551,699.198792 
	C791.893982,678.994385 783.233887,658.796204 774.624878,638.576172 
	C771.691101,631.685608 768.903564,624.732788 766.017456,617.821716 
	C765.468811,616.507996 765.379395,614.841614 763.411194,614.182129 
	C761.510193,616.711670 762.407227,619.624634 762.508301,622.276001 
	C763.250671,641.756042 763.286255,661.229248 762.463196,680.706787 
	C762.117676,688.882324 762.751587,696.610352 772.212036,699.842834 
	C773.447571,700.265015 774.023926,701.350708 773.789185,702.638977 
	C773.524475,704.091919 772.283630,704.285767 771.090393,704.312073 
	C761.769775,704.517212 752.448975,704.725464 743.127075,704.854370 
	C741.625183,704.875061 740.021851,704.593079 739.785950,702.605713 
	C739.569336,700.780823 740.652222,699.833008 742.248718,699.378357 
	C749.858826,697.210693 751.849731,691.647888 751.834351,684.422302 
	C751.775269,656.603516 751.737183,628.782410 752.076233,600.966797 
	C752.165222,593.668030 749.155701,589.320801 742.697815,586.806946 
	C740.968567,586.133789 738.956604,585.507812 739.350769,583.145508 
	C739.811951,580.381714 742.236145,580.827759 744.159607,580.822144 
	C753.321472,580.795349 762.487671,581.006775 771.643616,580.780273 
	C775.431885,580.686584 777.345032,582.142212 778.734741,585.539307 
	C788.187683,608.648071 797.770630,631.703735 807.349121,654.760986 
	C808.742371,658.114807 810.335999,661.385437 811.859070,664.743408 
	C814.319336,664.069763 814.693848,662.087463 815.340759,660.538452 
	C825.735168,635.649170 836.144409,610.765259 846.300842,585.778687 
	C847.715393,582.298767 849.350769,580.793274 853.154358,580.872681 
	C862.477783,581.067444 871.809082,580.866882 881.137024,580.896912 
	C882.732849,580.902039 884.774963,580.622986 885.318420,582.734070 
	C885.930115,585.110413 884.055786,585.803345 882.269470,586.515198 
	C876.165039,588.947754 873.314941,593.398499 873.334106,600.064880 
	C873.414612,628.037048 873.408081,656.010071 873.260620,683.981934 
	C873.222290,691.258789 875.500610,696.647156 882.842834,699.080994 
	C884.411743,699.601135 886.215027,700.283081 885.825623,702.457703 
	C885.414001,704.756042 883.395447,704.349243 881.802307,704.362671 
	C867.980225,704.479309 854.157776,704.556763 840.335449,704.643066 
	C838.821899,704.652466 837.194824,704.779602 836.832214,702.743530 
	C836.523560,701.010498 837.317993,699.800232 838.952148,699.270020 
	C846.745117,696.741211 848.157715,690.862732 848.064209,683.510010 
	C847.792969,662.190857 847.931458,640.866455 847.909424,619.544128 
	C847.907898,618.057861 847.909180,616.571655 847.909180,614.341492 
	C844.249939,617.083862 844.333252,621.061401 842.386597,624.306030 
z"/>
<path fill="#000000" opacity="1.000000" stroke="none" 
	d="
M266.046692,597.345520 
	C266.254517,591.079712 262.154541,588.442322 257.954834,585.874634 
	C256.585205,585.037231 254.486954,584.517822 255.142151,582.373779 
	C255.663742,580.666931 257.545166,580.797424 259.021515,580.835510 
	C278.157867,581.330200 297.323517,579.901489 316.438568,581.680420 
	C321.940155,582.192566 327.232117,583.501648 332.302582,585.794922 
	C342.821899,590.552551 349.429474,598.082275 350.408417,610.011597 
	C351.454071,622.753784 346.346497,632.344055 335.771973,639.111633 
	C332.020782,641.512329 327.937469,643.394043 323.512573,645.778381 
	C334.632477,657.835938 341.150970,672.606445 350.382599,685.589111 
	C356.075317,693.594910 358.819672,695.402222 371.384644,699.576660 
	C371.770203,702.789978 369.121796,703.288208 367.088623,704.106812 
	C353.492157,709.580994 337.682404,704.746338 327.948334,692.179321 
	C319.342926,681.069397 313.246735,668.408325 306.007843,656.455200 
	C303.401703,652.151794 300.474487,649.130859 294.896881,649.946533 
	C292.499573,650.296997 291.244568,651.086304 291.255981,653.624329 
	C291.308380,665.281555 291.143890,676.942566 291.404907,688.594482 
	C291.514923,693.504944 294.533569,696.837463 298.996460,698.860291 
	C300.764465,699.661621 303.215149,700.294006 302.482849,702.925476 
	C301.796783,705.390686 299.418701,704.310913 297.745758,704.318970 
	C284.922485,704.380432 272.098633,704.390625 259.275421,704.325867 
	C257.447876,704.316650 254.856903,705.155884 254.394485,702.271729 
	C253.998871,699.804138 256.395355,699.525085 257.992035,698.853821 
	C263.850586,696.391052 265.890137,691.849854 265.886139,685.734375 
	C265.866974,656.423035 265.993622,627.111633 266.046692,597.345520 
M299.069458,641.517639 
	C304.646515,640.678528 310.317261,640.273071 314.998047,636.456238 
	C323.367065,629.631897 326.543732,616.111938 322.513153,603.841248 
	C319.473846,594.588379 312.701477,590.440063 300.071014,590.099243 
	C298.906647,590.067810 297.732300,590.146240 296.578735,590.022522 
	C292.409363,589.575745 291.129272,591.430969 291.195129,595.527954 
	C291.406494,608.670593 291.281799,621.818787 291.270355,634.964844 
	C291.264496,641.714294 291.248749,641.714294 299.069458,641.517639 
z"/>
<path fill="#000000" opacity="1.000000" stroke="none" 
	d="
M652.325623,602.251465 
	C652.323669,623.548767 652.352356,644.376160 652.302002,665.203369 
	C652.291016,669.755127 652.974915,674.165100 654.420593,678.448730 
	C656.677734,685.136475 661.138550,689.873840 667.601685,692.648682 
	C689.172180,701.909729 709.046387,689.574707 709.557678,666.069519 
	C710.043030,643.753357 709.582031,621.417847 709.687744,599.091492 
	C709.720459,592.180420 705.855713,588.466614 700.118835,585.894409 
	C698.683960,585.251160 696.503540,584.896667 697.123718,582.624512 
	C697.686890,580.561096 699.762268,580.916077 701.361755,580.901550 
	C710.525146,580.818481 719.689026,580.780029 728.852783,580.785889 
	C730.455261,580.786926 732.451782,580.513184 732.814941,582.811401 
	C733.109619,584.676453 731.580078,585.480652 730.184631,585.988770 
	C722.729858,588.703430 720.826050,594.228699 720.819824,601.735291 
	C720.802002,623.052856 721.038696,644.367676 720.508789,665.695557 
	C719.671387,699.402283 693.915222,708.774719 669.767883,706.844482 
	C662.317322,706.248901 654.884094,704.788147 648.153442,701.185120 
	C633.229553,693.196167 626.916748,680.229553 626.881348,663.770752 
	C626.835449,642.443665 626.737000,621.115295 626.926514,599.789856 
	C626.987610,592.917725 624.647278,588.191956 617.871277,586.092407 
	C616.400452,585.636658 614.876587,584.979919 615.209961,583.059326 
	C615.537781,581.170837 617.246338,580.981567 618.735168,580.975830 
	C633.063538,580.920471 647.392090,580.914124 661.720642,580.925110 
	C663.056396,580.926086 664.542908,581.042358 664.886536,582.710205 
	C665.235657,584.404541 663.959778,585.052185 662.640869,585.495300 
	C654.786011,588.133911 651.965088,593.946472 652.325623,602.251465 
z"/>
<path fill="#000000" opacity="1.000000" stroke="none" 
	d="
M518.995605,618.064026 
	C521.495728,611.478455 523.904175,605.272949 526.202026,599.026733 
	C528.683594,592.281189 527.765076,589.959839 521.521912,586.423401 
	C519.879272,585.492920 517.198730,585.041809 518.068909,582.372070 
	C518.780762,580.188232 521.160156,580.855713 522.903625,580.848938 
	C530.897156,580.817810 538.891418,580.846252 546.884583,580.930542 
	C548.467041,580.947205 550.514038,580.629944 550.926575,582.869934 
	C551.260742,584.684509 549.650757,585.428894 548.351135,586.142700 
	C543.056946,589.050049 540.201477,593.907349 538.077332,599.235229 
	C530.682007,617.784363 523.462830,636.403870 516.035645,654.940186 
	C509.350952,671.623352 502.487976,688.235168 495.680603,704.869019 
	C495.051147,706.406982 494.295380,707.897949 493.523346,709.371521 
	C492.829468,710.695862 492.131714,712.180115 490.281097,712.004150 
	C488.695374,711.853394 488.263763,710.436096 487.724426,709.231079 
	C485.072479,703.305969 482.293579,697.432739 479.816467,691.435059 
	C466.727417,659.743469 453.700165,628.026428 440.698090,596.299072 
	C439.181763,592.598938 436.676483,589.846741 433.464142,587.611816 
	C431.578552,586.299988 429.547516,585.082336 429.140930,582.677856 
	C430.328278,580.617615 432.128723,580.967529 433.729980,580.960815 
	C447.053009,580.904724 460.376282,580.861572 473.699249,580.901306 
	C475.559143,580.906860 478.218872,580.180847 478.714905,582.857178 
	C479.219635,585.580322 476.386078,585.637024 474.707611,586.425659 
	C468.485382,589.349365 466.715851,591.810547 468.701599,597.080444 
	C478.083069,621.977600 487.717407,646.779358 497.756836,672.903809 
	C505.103302,653.934753 511.979279,636.180481 518.995605,618.064026 
z"/>
<path fill="#000000" opacity="1.000000" stroke="none" 
	d="
M175.000000,580.869080 
	C195.993408,580.848022 216.488037,580.939514 236.979279,580.717773 
	C241.639725,580.667297 243.301056,582.008179 243.529282,586.863525 
	C243.840134,593.477112 245.389679,600.025085 246.185654,606.627991 
	C246.402649,608.428040 247.249832,611.054199 244.635757,611.797363 
	C242.142395,612.506226 241.366730,610.063354 240.412231,608.359680 
	C237.971146,604.002563 235.708145,599.548340 232.560181,595.615417 
	C230.320389,592.817200 227.545120,591.358704 223.949585,591.359070 
	C219.284729,591.359558 214.617767,591.351624 209.955765,591.212158 
	C206.890671,591.120544 205.351761,592.175110 205.357040,595.505859 
	C205.405685,626.162354 205.314407,656.819214 205.414597,687.475464 
	C205.431946,692.784546 208.190338,696.605652 213.363327,698.421997 
	C214.620163,698.863342 215.884430,699.283936 217.136230,699.739014 
	C218.579178,700.263672 219.286774,701.271851 218.989944,702.828369 
	C218.703323,704.331116 217.491226,704.471619 216.300095,704.469543 
	C200.639328,704.442749 184.978607,704.399414 169.317902,704.350037 
	C167.898621,704.345581 166.596466,703.998535 166.282791,702.370239 
	C165.908401,700.426636 167.273636,699.543823 168.786697,699.252930 
	C178.174210,697.448303 179.988312,691.109131 179.905899,682.614563 
	C179.631195,654.293152 179.825150,625.967346 179.819839,597.643188 
	C179.818604,591.014526 179.761673,590.993835 173.094803,591.095947 
	C155.081116,591.371826 155.082657,591.372620 145.992065,607.390625 
	C145.499191,608.259094 144.973312,609.111938 144.412659,609.938049 
	C143.625244,611.098450 142.580643,612.052795 141.104996,611.635803 
	C139.411255,611.157288 139.546173,609.533447 139.730438,608.281311 
	C140.940445,600.059326 142.265091,591.854187 143.535843,583.641052 
	C144.011795,580.564941 146.334671,580.863647 148.508301,580.863953 
	C157.172195,580.865112 165.836105,580.866699 175.000000,580.869080 
z"/>
<path fill="#000000" opacity="1.000000" stroke="none" 
	d="
M593.226685,683.836975 
	C592.724121,691.306213 594.737366,696.827637 601.983398,699.295410 
	C603.734619,699.891846 604.968384,700.947998 604.501038,702.977112 
	C604.039612,704.980591 602.336121,704.667969 600.851807,704.657166 
	C587.699951,704.561462 574.547852,704.485596 561.396484,704.344543 
	C559.835388,704.327820 557.728088,704.955322 557.068604,702.876343 
	C556.321533,700.521545 558.355957,699.702393 560.027039,698.982483 
	C565.364014,696.683044 567.847351,692.745422 567.839172,686.876648 
	C567.798889,657.902344 567.794922,628.927307 567.991577,599.953979 
	C568.035522,593.474976 566.348938,588.521240 559.896973,586.025513 
	C558.438660,585.461487 557.191040,584.445190 557.663818,582.621765 
	C558.082092,581.008545 559.572571,580.921326 560.910645,580.918701 
	C574.564941,580.891724 588.219299,580.881470 601.873535,580.905579 
	C603.363892,580.908203 605.011169,580.937683 605.275574,583.001892 
	C605.496582,584.728394 604.188293,585.338074 602.951355,585.810059 
	C595.232056,588.755737 593.114258,594.546082 593.193237,602.432617 
	C593.463196,629.406189 593.254883,656.384521 593.226685,683.836975 
z"/>
<path fill="#000000" opacity="1.000000" stroke="none" 
	d="
M403.998596,580.892212 
	C409.327057,580.917297 414.156860,580.902527 418.984344,581.000488 
	C420.299622,581.027222 421.776611,581.227722 422.016052,582.962952 
	C422.236267,584.558716 421.188507,585.446228 419.872833,585.939636 
	C411.970093,588.903442 410.575562,594.854980 410.658356,602.701416 
	C410.937500,629.164978 410.505554,655.635864 410.385986,682.104126 
	C410.374725,684.591187 410.574585,687.086426 410.805176,689.565918 
	C411.250488,694.354553 413.907349,697.501770 418.286499,699.293762 
	C419.799133,699.912781 421.823425,700.236267 421.517487,702.440918 
	C421.186768,704.824219 419.047943,704.231079 417.502777,704.251648 
	C404.351501,704.426392 391.199493,704.545166 378.047607,704.671936 
	C376.688995,704.685059 375.265015,704.674438 374.943695,702.918823 
	C374.667389,701.408997 375.357635,700.204590 376.737579,699.715393 
	C385.042480,696.771179 385.735229,689.985046 385.653656,682.631165 
	C385.384094,658.323914 386.000305,634.008789 385.042999,609.707947 
	C384.879547,605.558472 385.546326,601.460693 385.119568,597.257263 
	C384.587036,592.011780 382.250366,588.591431 377.570557,586.458130 
	C376.002441,585.743286 373.519684,585.326355 374.011810,582.969421 
	C374.563721,580.326355 377.189178,581.094543 379.018982,581.063416 
	C387.177612,580.924927 395.338776,580.937134 403.998596,580.892212 
z"/>
</svg>